<svg width="850" height="850" viewBox="0 0 850 850" fill="none" xmlns="http://www.w3.org/2000/svg">
<path d="M404.402 17.8039C408.876 -4.7462 441.124 -4.74612 445.598 17.804L482.437 203.451C485.594 219.361 504.828 225.838 516.966 215.079L663.347 85.3196C680.712 69.9267 706.532 89.9155 695.981 110.583L612.012 275.056C604.358 290.049 616.571 307.502 633.278 305.448L826.339 281.71C849.681 278.84 859.376 310.642 838.402 321.282L670.855 406.272C655.522 414.05 655.522 435.95 670.855 443.728L838.402 528.718C859.376 539.358 849.681 571.16 826.339 568.29L633.278 544.552C616.571 542.498 604.358 559.951 612.012 574.944L695.981 739.417C706.532 760.085 680.712 780.073 663.347 764.68L516.966 634.921C504.828 624.162 485.594 630.639 482.437 646.549L445.598 832.196C441.124 854.746 408.876 854.746 404.402 832.196L367.563 646.549C364.406 630.639 345.172 624.162 333.034 634.921L186.653 764.68C169.288 780.073 143.468 760.085 154.019 739.417L237.988 574.944C245.642 559.951 233.429 542.498 216.722 544.552L23.6614 568.29C0.319007 571.16 -9.37564 539.358 11.5984 528.718L179.145 443.728C194.478 435.95 194.478 414.05 179.145 406.272L11.5984 321.282C-9.37561 310.642 0.318891 278.84 23.6613 281.71L216.722 305.448C233.429 307.502 245.642 290.049 237.988 275.056L154.019 110.583C143.468 89.9154 169.288 69.9266 186.653 85.3195L333.034 215.079C345.172 225.838 364.406 219.361 367.563 203.451L404.402 17.8039Z" fill="white"/>
</svg>
