<svg width="263" height="356" viewBox="0 0 263 356" fill="none" xmlns="http://www.w3.org/2000/svg">
<ellipse cx="131.31" cy="177.545" rx="88" ry="158.5" transform="rotate(17.3721 131.31 177.545)" fill="white"/>
<g clip-path="url(#clip0_98_305)">
<path d="M95.5697 218.027L96.2301 218.707C97.518 220.034 97.4872 222.163 96.1456 223.443L85.93 233.288C84.6012 234.571 84.5604 236.685 85.8455 238.024L90.4888 242.819C91.7766 244.146 91.7486 246.262 90.4042 247.555C89.0755 248.838 86.9414 248.805 85.6563 247.465L75.6992 237.18C74.4114 235.853 74.4421 233.724 75.7837 232.444L90.819 217.95C92.1477 216.667 94.269 216.697 95.5669 218.039L95.5697 218.027Z" fill="#353535"/>
<path d="M117.563 232.802L120.008 233.387C121.443 233.725 122.537 234.889 122.775 236.337L126.485 258.228C126.922 260.807 124.575 262.998 122.026 262.391L121.846 262.352C120.388 261.996 119.287 260.803 119.07 259.319L119.014 258.958C118.797 257.474 117.698 256.268 116.225 255.922L110.652 254.606C109.191 254.262 107.664 254.844 106.806 256.068L106.592 256.371C105.734 257.595 104.208 258.177 102.747 257.833C100.198 257.227 99.0866 254.219 100.635 252.111L113.757 234.206C114.619 233.024 116.128 232.464 117.56 232.815L117.563 232.802ZM117.39 247.136C117.125 245.252 114.679 244.667 113.586 246.23C112.731 247.441 113.373 249.139 114.821 249.479C116.269 249.82 117.596 248.604 117.39 247.136Z" fill="#353535"/>
<path d="M131.749 238.176C131.253 236.927 131.866 235.529 133.118 235.035L144.041 230.742C147.267 229.468 149.87 229.388 151.958 230.257C153.403 230.919 154.565 232.018 155.261 233.78L155.285 233.853C155.918 235.467 155.926 236.919 155.485 238.207C155.028 239.572 155.761 241.034 157.138 241.453C158.921 241.988 160.304 243.187 161.163 245.375L161.187 245.447C162.928 249.841 160.383 253.936 154.259 256.341L143.263 260.658C142.011 261.152 140.609 260.539 140.112 259.29L131.742 238.148L131.749 238.176ZM148.821 238.011C148.255 236.585 146.817 236.26 144.714 237.08L142.314 238.023C141.062 238.517 140.462 239.918 140.946 241.165C141.442 242.414 142.848 243.014 144.097 242.533L146.32 241.659C148.483 240.812 149.45 239.584 148.846 238.083L148.821 238.011ZM149.252 246.27L146.073 247.515C144.821 248.009 144.221 249.41 144.705 250.656L144.792 250.876C145.289 252.126 146.691 252.739 147.943 252.245L151.197 250.963C153.405 250.099 154.282 248.785 153.681 247.271L153.656 247.198C153.11 245.804 151.639 245.324 149.255 246.257L149.252 246.27Z" fill="#353535"/>
<path d="M151.051 189.419C148.569 188.881 146.986 186.429 147.523 183.953L147.721 183.043C145.221 183.763 142.516 183.942 139.764 183.466C134.976 182.629 130.855 179.962 128.156 175.952C125.457 171.942 124.52 167.132 125.547 162.399L127.227 154.651C129.283 145.172 138.685 139.139 148.19 141.201C157.695 143.262 163.754 152.648 161.698 162.127L156.542 185.896C156.005 188.372 153.549 189.948 151.067 189.409L151.051 189.419ZM146.227 150.19C141.687 149.205 137.197 152.086 136.215 156.614L134.535 164.361C134.045 166.619 134.489 168.918 135.783 170.837C137.077 172.756 139.05 174.03 141.333 174.431C145.797 175.212 150.038 172.358 150.995 167.945L152.676 160.197C153.658 155.669 150.765 151.187 146.224 150.203L146.227 150.19Z" fill="#353535"/>
<path d="M179.964 201.102C175.501 200.134 171.659 197.542 169.091 193.735C166.379 189.722 165.456 184.915 166.482 180.181L170.917 159.735C171.454 157.259 173.91 155.683 176.392 156.222C178.875 156.76 180.457 159.212 179.92 161.688L175.486 182.134C174.996 184.392 175.44 186.691 176.734 188.61C178.028 190.529 180.014 191.806 182.287 192.192C186.751 192.972 190.992 190.118 191.949 185.705L193.318 179.394C193.855 176.918 196.311 175.343 198.794 175.881C201.276 176.419 202.859 178.871 202.322 181.347L200.953 187.658C198.947 196.906 190.057 202.875 180.713 201.251C180.468 201.198 180.221 201.158 179.964 201.102Z" fill="#353535"/>
<path d="M173.839 241.073C172.978 240.886 172.156 240.453 171.498 239.76C169.741 237.928 169.791 235.024 171.628 233.261C179.293 225.925 185.909 213.553 188.477 201.713L196.386 165.246C196.923 162.77 199.38 161.194 201.862 161.733C204.344 162.271 205.927 164.723 205.39 167.198L197.48 203.666C194.509 217.366 187.054 231.247 178.014 239.897C176.861 240.99 175.293 241.388 173.839 241.073Z" fill="#353535"/>
<path d="M106.755 184.029C106.678 184.012 106.601 183.995 106.524 183.979C104.172 183.334 102.785 180.911 103.416 178.564L104.344 175.152L111.377 142.725C111.892 140.352 114.242 138.834 116.634 139.352C119.026 139.871 120.538 142.214 120.021 144.6L112.915 177.36L111.949 180.884C111.335 183.155 109.032 184.523 106.755 184.029Z" fill="#353535"/>
<path d="M114.764 147.972C112.385 147.456 110.86 145.111 111.378 142.725L112.643 136.889C113.484 133.015 111.004 129.173 107.12 128.331C104.74 127.815 103.177 125.461 103.694 123.075C104.212 120.689 106.52 119.175 108.912 119.694C117.645 121.588 123.159 130.131 121.287 138.763L120.021 144.6C119.506 146.973 117.157 148.491 114.764 147.972Z" fill="#353535"/>
<path d="M121.535 220.636C111.541 218.469 103.585 210.632 101.247 200.67C100.699 198.295 102.168 195.927 104.549 195.383C106.917 194.835 109.305 196.307 109.853 198.682C111.411 205.346 116.726 210.581 123.402 212.029C130.077 213.477 137.084 210.914 141.263 205.494C142.746 203.56 145.529 203.21 147.457 204.689C149.398 206.171 149.752 208.947 148.271 210.869C142.017 218.968 131.529 222.804 121.535 220.636Z" fill="#353535"/>
<path d="M64.8847 217.442C63.4442 217.129 62.1667 216.127 61.5731 214.642C56.9255 203.037 55.8915 187.314 58.8628 173.614L64.0181 149.846C66.074 140.366 75.4762 134.334 84.9814 136.395C94.4865 138.457 100.545 147.843 98.4886 157.322L96.8082 165.07C95.7816 169.803 92.9495 173.795 88.8187 176.324C84.688 178.853 79.8447 179.575 75.1403 178.354C72.4386 177.647 70.0504 176.363 68.0739 174.672L67.8764 175.583C65.3113 187.409 66.2043 201.423 70.1411 211.275C71.0851 213.629 69.9383 216.308 67.5671 217.244C66.6841 217.59 65.7538 217.657 64.892 217.47L64.8847 217.442ZM71.3412 159.546C70.3841 163.959 73.0623 168.313 77.4479 169.453C79.7023 170.049 82.0154 169.691 83.9856 168.493C85.9585 167.283 87.3151 165.374 87.8047 163.117L89.4851 155.369C90.4672 150.841 87.5742 146.359 83.0339 145.374C78.4936 144.39 74.0037 147.27 73.0216 151.798L71.3412 159.546Z" fill="#353535"/>
<path d="M137.847 102.775L131.789 101.461L129.107 113.826L135.049 115.115C138.904 115.911 142.137 113.792 142.891 110.316C143.645 106.84 141.609 103.685 137.847 102.775ZM135.511 112.986L131.781 112.177L133.542 104.057L137.298 104.872C139.731 105.453 140.956 107.505 140.455 109.814C139.954 112.123 137.979 113.467 135.514 112.973L135.511 112.986Z" fill="#353535"/>
<path d="M128.037 102.917L128.508 100.75L116.096 98.0576L115.626 100.225L120.719 101.33L118.98 109.347L113.887 108.242L113.414 110.423L125.826 113.115L126.299 110.934L121.205 109.83L122.944 101.813L128.037 102.917Z" fill="#353535"/>
<path d="M158.974 109.614L159.441 107.459L146.939 104.747L144.258 117.113L156.76 119.824L157.23 117.656L146.966 115.43L147.603 112.493L155.616 114.231L156.086 112.063L148.073 110.325L148.71 107.388L158.974 109.614Z" fill="#353535"/>
<path d="M168.372 108.818C164.603 108.001 160.901 110.354 160.094 114.074C159.287 117.794 161.682 121.469 165.45 122.287C169.219 123.104 172.921 120.751 173.728 117.031C174.535 113.311 172.14 109.636 168.372 108.818ZM165.957 119.952C163.487 119.417 161.922 117.009 162.451 114.572C162.979 112.135 165.399 110.604 167.868 111.14C170.338 111.676 171.903 114.083 171.377 116.508C170.851 118.932 168.426 120.488 165.957 119.952Z" fill="#353535"/>
</g>
<defs>
<clipPath id="clip0_98_305">
<rect width="141.838" height="159.907" fill="white" transform="translate(77.2051 89.0449) rotate(12.2374)"/>
</clipPath>
</defs>
</svg>
