<svg width="145" height="96" viewBox="0 0 145 96" fill="none" xmlns="http://www.w3.org/2000/svg">
<mask id="path-1-inside-1_98_331" fill="white">
<path d="M133 28.4647C138.523 28.4647 143 32.9419 143 38.4647V85.4647C143 90.9876 138.523 95.4647 133 95.4647L33.5 95.4647C14.9985 95.4647 0 80.4663 0 61.9647V61.9647C0 43.4632 14.9985 28.4647 33.5 28.4647L133 28.4647Z"/>
</mask>
<path d="M133 28.4647C138.523 28.4647 143 32.9419 143 38.4647V85.4647C143 90.9876 138.523 95.4647 133 95.4647L33.5 95.4647C14.9985 95.4647 0 80.4663 0 61.9647V61.9647C0 43.4632 14.9985 28.4647 33.5 28.4647L133 28.4647Z" fill="#353535" stroke="#353535" stroke-width="38" mask="url(#path-1-inside-1_98_331)"/>
<path d="M134.826 10L71.8568 11.4434C65.5402 11.5882 59.7619 15.0343 56.6324 20.5231L42.6068 45.1225" stroke="#353535" stroke-width="19" stroke-linecap="round"/>
</svg>
