<svg width="794" height="794" viewBox="0 0 794 794" fill="none" xmlns="http://www.w3.org/2000/svg">
<path d="M538.51 97.6747L530.56 99.742C509.812 105.138 487.828 97.855 474.405 81.1385C436.82 34.3314 365.882 33.3937 327.073 79.191C313.213 95.5469 291.044 102.246 270.445 96.3037L262.553 94.027C206.833 77.9523 150.749 118.23 148.18 176.166C147.279 196.475 133.823 214.073 114.461 220.266L109.25 221.932C53.333 239.816 30.9497 306.912 64.9303 354.785C76.4316 370.989 76.1437 392.768 64.2181 408.662C28.984 455.62 49.5861 523.285 105.011 542.64L110.176 544.443C129.368 551.146 142.354 569.094 142.717 589.419C143.754 647.403 198.754 689.149 254.88 674.553L262.829 672.485C283.578 667.089 305.562 674.372 318.985 691.089C356.57 737.896 427.507 738.834 466.317 693.036C480.177 676.68 502.345 669.981 522.944 675.924L530.836 678.2C586.557 694.275 642.641 653.997 645.21 596.061C646.11 575.752 659.566 558.154 678.929 551.961L684.139 550.295C740.056 532.412 762.44 465.315 728.459 417.442C716.958 401.238 717.246 379.459 729.171 363.565C764.405 316.607 743.803 248.943 688.378 229.587L683.214 227.784C664.022 221.082 651.036 203.134 650.672 182.808C649.636 124.824 594.636 83.0784 538.51 97.6747Z" fill="black" stroke="black" stroke-width="41.0615"/>
</svg>
