<svg width="794" height="794" viewBox="0 0 794 794" fill="none" xmlns="http://www.w3.org/2000/svg">
<g filter="url(#filter0_d_27_3)">
<mask id="path-1-outside-1_27_3" maskUnits="userSpaceOnUse" x="16" y="21" width="762" height="753" fill="black">
<rect fill="white" x="16" y="21" width="762" height="753"/>
<path fill-rule="evenodd" clip-rule="evenodd" d="M752.701 223.255C751.311 260.156 721.833 292.487 673.646 316.593C718.226 345.678 744.115 380.538 742.752 416.74C741.363 453.64 711.885 485.971 663.699 510.077C708.279 539.162 734.169 574.022 732.806 610.224C729.551 696.692 572.057 758.071 381.035 747.318C190.012 736.565 37.796 657.753 41.0513 571.285C42.4404 534.385 71.9188 502.054 120.105 477.948C75.5245 448.863 49.6346 414.003 50.9975 377.801C52.3867 340.9 81.8656 308.569 130.053 284.463C85.4725 255.378 59.5829 220.518 60.9458 184.316C64.2011 97.8485 221.695 36.4696 412.717 47.2224C603.74 57.9753 755.956 136.788 752.701 223.255Z"/>
</mask>
<path fill-rule="evenodd" clip-rule="evenodd" d="M752.701 223.255C751.311 260.156 721.833 292.487 673.646 316.593C718.226 345.678 744.115 380.538 742.752 416.74C741.363 453.64 711.885 485.971 663.699 510.077C708.279 539.162 734.169 574.022 732.806 610.224C729.551 696.692 572.057 758.071 381.035 747.318C190.012 736.565 37.796 657.753 41.0513 571.285C42.4404 534.385 71.9188 502.054 120.105 477.948C75.5245 448.863 49.6346 414.003 50.9975 377.801C52.3867 340.9 81.8656 308.569 130.053 284.463C85.4725 255.378 59.5829 220.518 60.9458 184.316C64.2011 97.8485 221.695 36.4696 412.717 47.2224C603.74 57.9753 755.956 136.788 752.701 223.255Z" fill="#DEF009"/>
<path d="M673.646 316.593L662.51 294.333L623.72 313.738L660.046 337.438L673.646 316.593ZM752.701 223.255L777.573 224.192L777.573 224.192L752.701 223.255ZM742.752 416.74L767.625 417.676L767.625 417.676L742.752 416.74ZM663.699 510.077L652.563 487.817L613.773 507.223L650.099 530.922L663.699 510.077ZM732.806 610.224L757.678 611.161L757.678 611.161L732.806 610.224ZM381.035 747.318L382.433 722.468L382.433 722.468L381.035 747.318ZM41.0513 571.285L16.1792 570.349L16.1792 570.349L41.0513 571.285ZM120.105 477.948L131.241 500.208L170.031 480.802L133.705 457.103L120.105 477.948ZM50.9975 377.801L26.1255 376.864L50.9975 377.801ZM130.053 284.463L141.188 306.723L179.979 287.318L143.653 263.618L130.053 284.463ZM60.9458 184.316L36.0737 183.38L36.0737 183.38L60.9458 184.316ZM412.717 47.2224L414.116 22.3721L412.717 47.2224ZM684.781 338.853C735.71 313.375 775.663 274.919 777.573 224.192L727.829 222.319C726.96 245.393 707.955 271.599 662.51 294.333L684.781 338.853ZM767.625 417.676C769.487 368.204 734.312 326.454 687.246 295.747L660.046 337.438C702.14 364.902 718.744 392.872 717.88 415.804L767.625 417.676ZM674.834 532.336C725.763 506.859 765.715 468.403 767.625 417.676L717.88 415.804C717.012 438.877 698.007 465.083 652.563 487.817L674.834 532.336ZM650.099 530.922C692.194 558.386 708.797 586.357 707.934 609.288L757.678 611.161C759.541 561.688 724.365 519.938 677.299 489.231L650.099 530.922ZM707.934 609.288C706.91 636.491 680.237 667.898 618.295 692.038C558.683 715.27 475.257 727.693 382.433 722.468L379.636 772.168C477.835 777.696 568.667 764.805 636.371 738.42C701.745 712.942 755.447 670.425 757.678 611.161L707.934 609.288ZM382.433 722.468C289.626 717.243 207.399 695.502 149.633 665.592C89.622 634.52 64.8832 599.85 65.9233 572.221L16.1792 570.349C13.964 629.188 63.7055 677.158 126.744 709.797C192.027 743.599 281.42 766.64 379.636 772.168L382.433 722.468ZM65.9233 572.221C66.792 549.148 85.7967 522.942 131.241 500.208L108.969 455.688C58.0409 481.166 18.0889 519.622 16.1792 570.349L65.9233 572.221ZM26.1255 376.864C24.2629 426.337 59.4389 468.087 106.505 498.794L133.705 457.103C91.6102 429.639 75.0063 401.668 75.8696 378.737L26.1255 376.864ZM118.917 262.203C67.9878 287.681 28.0352 326.137 26.1255 376.864L75.8696 378.737C76.7383 355.663 95.7434 329.457 141.188 306.723L118.917 262.203ZM36.0737 183.38C34.2112 232.852 69.3867 274.602 116.452 305.309L143.653 263.618C101.558 236.154 84.9546 208.183 85.8179 185.252L36.0737 183.38ZM414.116 22.3721C315.917 16.8444 225.085 29.7351 157.381 56.1208C92.0067 81.5986 38.3049 124.115 36.0737 183.38L85.8179 185.252C86.842 158.049 113.515 126.643 175.457 102.502C235.069 79.27 318.495 66.8477 411.319 72.0728L414.116 22.3721ZM777.573 224.192C779.788 165.353 730.046 117.383 667.007 84.7432C601.725 50.9417 512.332 27.9007 414.116 22.3721L411.319 72.0728C504.126 77.297 586.353 99.0387 644.119 128.949C704.13 160.02 728.869 194.691 727.829 222.319L777.573 224.192Z" fill="white" mask="url(#path-1-outside-1_27_3)"/>
</g>
<defs>
<filter id="filter0_d_27_3" x="10.8685" y="21.1108" width="772.015" height="762.799" filterUnits="userSpaceOnUse" color-interpolation-filters="sRGB">
<feFlood flood-opacity="0" result="BackgroundImageFix"/>
<feColorMatrix in="SourceAlpha" type="matrix" values="0 0 0 0 0 0 0 0 0 0 0 0 0 0 0 0 0 0 127 0" result="hardAlpha"/>
<feOffset dy="5.23994"/>
<feGaussianBlur stdDeviation="2.61997"/>
<feComposite in2="hardAlpha" operator="out"/>
<feColorMatrix type="matrix" values="0 0 0 0 0 0 0 0 0 0 0 0 0 0 0 0 0 0 0.25 0"/>
<feBlend mode="normal" in2="BackgroundImageFix" result="effect1_dropShadow_27_3"/>
<feBlend mode="normal" in="SourceGraphic" in2="effect1_dropShadow_27_3" result="shape"/>
</filter>
</defs>
</svg>
