<svg width="794" height="794" viewBox="0 0 794 794" fill="none" xmlns="http://www.w3.org/2000/svg">
<g clip-path="url(#clip0_29_22)">
<mask id="path-1-outside-1_29_22" maskUnits="userSpaceOnUse" x="-1" y="4" width="795" height="786" fill="black">
<rect fill="white" x="-1" y="4" width="795" height="786"/>
<path fill-rule="evenodd" clip-rule="evenodd" d="M752.701 223.255C751.311 260.156 721.833 292.487 673.646 316.593C718.226 345.678 744.115 380.538 742.752 416.74C741.363 453.64 711.885 485.971 663.699 510.077C708.279 539.162 734.169 574.022 732.806 610.224C729.551 696.692 572.057 758.071 381.035 747.318C190.012 736.565 37.796 657.753 41.0513 571.285C42.4404 534.385 71.9188 502.054 120.105 477.948C75.5245 448.863 49.6346 414.003 50.9975 377.801C52.3867 340.9 81.8656 308.569 130.053 284.463C85.4725 255.378 59.5829 220.518 60.9458 184.316C64.2011 97.8485 221.695 36.4696 412.717 47.2224C603.74 57.9753 755.956 136.788 752.701 223.255Z"/>
</mask>
<path fill-rule="evenodd" clip-rule="evenodd" d="M752.701 223.255C751.311 260.156 721.833 292.487 673.646 316.593C718.226 345.678 744.115 380.538 742.752 416.74C741.363 453.64 711.885 485.971 663.699 510.077C708.279 539.162 734.169 574.022 732.806 610.224C729.551 696.692 572.057 758.071 381.035 747.318C190.012 736.565 37.796 657.753 41.0513 571.285C42.4404 534.385 71.9188 502.054 120.105 477.948C75.5245 448.863 49.6346 414.003 50.9975 377.801C52.3867 340.9 81.8656 308.569 130.053 284.463C85.4725 255.378 59.5829 220.518 60.9458 184.316C64.2011 97.8485 221.695 36.4696 412.717 47.2224C603.74 57.9753 755.956 136.788 752.701 223.255Z" fill="#F86657"/>
<path d="M673.646 316.593L655.275 279.87L591.281 311.884L651.209 350.982L673.646 316.593ZM752.701 223.255L793.733 224.8V224.8L752.701 223.255ZM742.752 416.74L783.785 418.285V418.285L742.752 416.74ZM663.699 510.077L645.328 473.354L581.333 505.368L641.262 544.467L663.699 510.077ZM732.806 610.224L773.839 611.769L732.806 610.224ZM381.035 747.318L383.342 706.321L381.035 747.318ZM41.0513 571.285L0.0187759 569.74L41.0513 571.285ZM120.105 477.948L138.476 514.671L202.47 482.657L142.542 443.558L120.105 477.948ZM50.9975 377.801L9.96507 376.256L50.9975 377.801ZM130.053 284.463L148.423 321.186L212.418 289.172L152.489 250.073L130.053 284.463ZM60.9458 184.316L19.9133 182.771L60.9458 184.316ZM412.717 47.2224L415.025 6.22579L412.717 47.2224ZM692.016 353.316C744.727 326.947 791.485 284.511 793.733 224.8L711.668 221.711C711.138 235.801 698.938 258.027 655.275 279.87L692.016 353.316ZM783.785 418.285C785.972 360.189 744.763 313.964 696.082 282.203L651.209 350.982C691.688 377.392 702.259 400.887 701.72 415.195L783.785 418.285ZM682.07 546.799C734.78 520.43 781.537 477.995 783.785 418.285L701.72 415.195C701.19 429.285 688.99 451.511 645.328 473.354L682.07 546.799ZM641.262 544.467C681.742 570.876 692.312 594.371 691.774 608.68L773.839 611.769C776.026 553.674 734.816 507.448 686.135 475.687L641.262 544.467ZM691.774 608.68C691.142 625.467 673.25 653.264 612.423 676.97C555.439 699.178 474.419 711.448 383.342 706.321L378.727 788.315C478.673 793.941 571.911 780.898 642.243 753.488C708.733 727.575 771.215 681.449 773.839 611.769L691.774 608.68ZM383.342 706.321C292.292 701.196 212.393 679.876 157.068 651.231C98.0415 620.668 81.4253 590.319 82.0837 572.83L0.0187759 569.74C-2.57809 638.719 55.286 691.009 119.309 724.158C187.034 759.224 278.754 782.687 378.727 788.315L383.342 706.321ZM82.0837 572.83C82.6142 558.74 94.8138 536.514 138.476 514.671L101.734 441.225C49.0239 467.594 2.2667 510.03 0.0187759 569.74L82.0837 572.83ZM9.96507 376.256C7.77791 434.351 48.9873 480.577 97.6687 512.338L142.542 443.558C102.062 417.149 91.4913 393.654 92.03 379.345L9.96507 376.256ZM111.682 247.74C58.9708 274.109 12.213 316.545 9.96507 376.256L92.03 379.345C92.5605 365.255 104.76 343.029 148.423 321.186L111.682 247.74ZM19.9133 182.771C17.7262 240.867 58.9351 287.092 107.616 318.853L152.489 250.073C112.01 223.664 101.44 200.169 101.978 185.861L19.9133 182.771ZM415.025 6.22579C315.079 0.599751 221.841 13.6427 151.508 41.0528C85.0194 66.9651 22.5366 113.091 19.9133 182.771L101.978 185.861C102.61 169.073 120.502 141.276 181.329 117.57C238.313 95.3624 319.333 83.0923 410.41 88.2191L415.025 6.22579ZM793.733 224.8C796.33 155.822 738.466 103.531 674.443 70.3822C606.718 35.3164 514.998 11.8533 415.025 6.22579L410.41 88.2191C501.46 93.3444 581.359 114.664 636.684 143.31C695.71 173.872 712.327 204.222 711.668 221.711L793.733 224.8Z" fill="white" mask="url(#path-1-outside-1_29_22)"/>
</g>
<defs>
<clipPath id="clip0_29_22">
<rect width="794" height="794" fill="white"/>
</clipPath>
</defs>
</svg>
