<svg width="794" height="794" viewBox="0 0 794 794" fill="none" xmlns="http://www.w3.org/2000/svg">
<g clip-path="url(#clip0_27_3)">
<mask id="path-1-outside-1_27_3" maskUnits="userSpaceOnUse" x="-1" y="4" width="795" height="786" fill="black">
<rect fill="white" x="-1" y="4" width="795" height="786"/>
<path fill-rule="evenodd" clip-rule="evenodd" d="M752.701 223.255C751.311 260.156 721.833 292.487 673.646 316.593C718.226 345.678 744.115 380.538 742.752 416.74C741.363 453.64 711.885 485.971 663.698 510.077C708.279 539.162 734.169 574.022 732.806 610.224C729.551 696.692 572.057 758.071 381.034 747.318C190.012 736.565 37.7958 657.752 41.0511 571.285C42.4403 534.385 71.9187 502.054 120.105 477.948C75.5244 448.863 49.6345 414.002 50.9974 377.8C52.3866 340.9 81.8654 308.569 130.052 284.463C85.4723 255.378 59.5827 220.518 60.9456 184.316C64.2009 97.8483 221.694 36.4694 412.717 47.2222C603.74 57.9751 755.956 136.788 752.701 223.255Z"/>
</mask>
<path fill-rule="evenodd" clip-rule="evenodd" d="M752.701 223.255C751.311 260.156 721.833 292.487 673.646 316.593C718.226 345.678 744.115 380.538 742.752 416.74C741.363 453.64 711.885 485.971 663.698 510.077C708.279 539.162 734.169 574.022 732.806 610.224C729.551 696.692 572.057 758.071 381.034 747.318C190.012 736.565 37.7958 657.752 41.0511 571.285C42.4403 534.385 71.9187 502.054 120.105 477.948C75.5244 448.863 49.6345 414.002 50.9974 377.8C52.3866 340.9 81.8654 308.569 130.052 284.463C85.4723 255.378 59.5827 220.518 60.9456 184.316C64.2009 97.8483 221.694 36.4694 412.717 47.2222C603.74 57.9751 755.956 136.788 752.701 223.255Z" fill="#DBED09"/>
<path d="M673.646 316.593L655.275 279.87L591.28 311.883L651.209 350.982L673.646 316.593ZM752.701 223.255L793.733 224.8V224.8L752.701 223.255ZM742.752 416.74L783.785 418.285V418.285L742.752 416.74ZM663.698 510.077L645.327 473.354L581.333 505.368L641.262 544.466L663.698 510.077ZM732.806 610.224L773.839 611.769V611.769L732.806 610.224ZM381.034 747.318L383.342 706.321L381.034 747.318ZM41.0511 571.285L0.0186234 569.74L41.0511 571.285ZM120.105 477.948L138.476 514.671L202.47 482.657L142.542 443.558L120.105 477.948ZM50.9974 377.8L9.96491 376.256L50.9974 377.8ZM130.052 284.463L148.423 321.186L212.418 289.172L152.489 250.073L130.052 284.463ZM60.9456 184.316L19.9132 182.771L60.9456 184.316ZM412.717 47.2222L415.025 6.2256L412.717 47.2222ZM692.016 353.315C744.727 326.946 791.485 284.51 793.733 224.8L711.668 221.71C711.138 235.801 698.938 258.027 655.275 279.87L692.016 353.315ZM783.785 418.285C785.972 360.189 744.763 313.964 696.082 282.203L651.209 350.982C691.688 377.392 702.259 400.887 701.72 415.195L783.785 418.285ZM682.069 546.799C734.78 520.43 781.537 477.994 783.785 418.285L701.72 415.195C701.189 429.285 688.99 451.511 645.327 473.354L682.069 546.799ZM641.262 544.466C681.742 570.876 692.312 594.371 691.774 608.68L773.839 611.769C776.026 553.673 734.816 507.448 686.135 475.687L641.262 544.466ZM691.774 608.679C691.142 625.467 673.25 653.264 612.423 676.97C555.439 699.178 474.419 711.448 383.342 706.321L378.727 788.314C478.673 793.94 571.911 780.898 642.243 753.487C708.732 727.575 771.215 681.449 773.839 611.769L691.774 608.679ZM383.342 706.321C292.292 701.196 212.393 679.876 157.068 651.231C98.0413 620.668 81.4252 590.318 82.0836 572.83L0.0186234 569.74C-2.57825 638.719 55.2858 691.009 119.309 724.158C187.033 759.224 278.754 782.687 378.727 788.314L383.342 706.321ZM82.0836 572.83C82.614 558.74 94.8136 536.513 138.476 514.671L101.734 441.225C49.0237 467.594 2.26656 510.03 0.0186234 569.74L82.0836 572.83ZM9.96491 376.256C7.77776 434.351 48.9872 480.577 97.6685 512.338L142.542 443.558C102.062 417.148 91.4912 393.654 92.0299 379.345L9.96491 376.256ZM111.682 247.74C58.9707 274.109 12.2129 316.545 9.96491 376.256L92.0299 379.345C92.5603 365.255 104.76 343.028 148.423 321.186L111.682 247.74ZM19.9132 182.771C17.726 240.866 58.9349 287.092 107.616 318.853L152.489 250.073C112.01 223.663 101.439 200.169 101.978 185.861L19.9132 182.771ZM415.025 6.2256C315.079 0.59956 221.841 13.6425 151.508 41.0526C85.0193 66.9649 22.5364 113.091 19.9132 182.771L101.978 185.861C102.61 169.073 120.502 141.276 181.329 117.57C238.313 95.3622 319.333 83.0921 410.41 88.2189L415.025 6.2256ZM793.733 224.8C796.33 155.821 738.466 103.531 674.443 70.382C606.718 35.3162 514.998 11.8532 415.025 6.2256L410.41 88.2189C501.46 93.3442 581.358 114.664 636.683 143.309C695.71 173.872 712.326 204.222 711.668 221.71L793.733 224.8Z" fill="white" mask="url(#path-1-outside-1_27_3)"/>
</g>
<defs>
<clipPath id="clip0_27_3">
<rect width="794" height="794" fill="white"/>
</clipPath>
</defs>
</svg>
