<svg width="794" height="794" viewBox="0 0 794 794" fill="none" xmlns="http://www.w3.org/2000/svg">
<g filter="url(#filter0_d_27_13)">
<path d="M342.736 92.4642C373.202 56.5118 428.891 57.248 458.396 93.993V93.993C476.881 117.013 507.155 127.043 535.728 119.612L543.677 117.545C586.945 106.292 629.346 138.474 630.145 183.175V183.175C630.662 212.094 649.138 237.631 676.445 247.167L681.61 248.97C723.919 263.745 739.645 315.397 712.749 351.244V351.244C695.466 374.278 695.049 405.842 711.717 429.325V429.325C737.656 465.87 720.57 517.089 677.885 530.74L672.675 532.406C645.125 541.217 625.98 566.256 624.699 595.152V595.152C622.719 639.816 579.483 670.866 536.527 658.474L528.635 656.197C500.268 648.014 469.74 657.239 450.653 679.763V679.763C420.187 715.715 364.499 714.979 334.993 678.234V678.234C316.508 655.214 286.235 645.185 257.662 652.615L249.712 654.683C206.444 665.935 164.044 633.753 163.245 589.052V589.052C162.728 560.133 144.251 534.597 116.944 525.061L111.78 523.257C69.4707 508.482 53.7439 456.83 80.6402 420.984V420.984C97.9237 397.949 98.3409 366.385 81.6723 342.902V342.902C55.7329 306.357 72.8194 255.139 115.504 241.487L120.715 239.821C148.264 231.01 167.409 205.971 168.69 177.075V177.075C170.671 132.412 213.907 101.361 256.863 113.753L264.755 116.03C293.121 124.213 323.649 114.988 342.736 92.4642V92.4642Z" fill="#FEA6D9"/>
<path d="M538.51 97.6747L530.56 99.742C509.812 105.138 487.828 97.855 474.405 81.1385C436.82 34.3314 365.882 33.3937 327.073 79.191C313.213 95.5469 291.044 102.246 270.445 96.3037L262.553 94.027C206.833 77.9523 150.749 118.23 148.18 176.166C147.279 196.475 133.823 214.073 114.461 220.266L109.25 221.932C53.333 239.816 30.9497 306.912 64.9303 354.785C76.4316 370.989 76.1437 392.768 64.2181 408.662C28.984 455.62 49.5861 523.285 105.011 542.64L110.176 544.443C129.368 551.146 142.354 569.094 142.717 589.419C143.754 647.403 198.754 689.149 254.88 674.553L262.829 672.485C283.578 667.089 305.562 674.372 318.985 691.089C356.57 737.896 427.507 738.834 466.317 693.036C480.177 676.68 502.345 669.981 522.944 675.924L530.836 678.2C586.557 694.275 642.641 653.997 645.21 596.061C646.11 575.752 659.566 558.154 678.929 551.961L684.139 550.295C740.056 532.412 762.44 465.315 728.459 417.442C716.958 401.238 717.246 379.459 729.171 363.565C764.405 316.607 743.803 248.943 688.378 229.587L683.214 227.784C664.022 221.082 651.036 203.134 650.672 182.808C649.636 124.824 594.636 83.0784 538.51 97.6747Z" stroke="white" stroke-width="41.0615"/>
</g>
<defs>
<filter id="filter0_d_27_13" x="17.6309" y="24.8989" width="758.127" height="739.719" filterUnits="userSpaceOnUse" color-interpolation-filters="sRGB">
<feFlood flood-opacity="0" result="BackgroundImageFix"/>
<feColorMatrix in="SourceAlpha" type="matrix" values="0 0 0 0 0 0 0 0 0 0 0 0 0 0 0 0 0 0 127 0" result="hardAlpha"/>
<feOffset dy="8.64454"/>
<feGaussianBlur stdDeviation="4.32227"/>
<feComposite in2="hardAlpha" operator="out"/>
<feColorMatrix type="matrix" values="0 0 0 0 0 0 0 0 0 0 0 0 0 0 0 0 0 0 0.25 0"/>
<feBlend mode="normal" in2="BackgroundImageFix" result="effect1_dropShadow_27_13"/>
<feBlend mode="normal" in="SourceGraphic" in2="effect1_dropShadow_27_13" result="shape"/>
</filter>
</defs>
</svg>
